<svg id="Group_2309" data-name="Group 2309" xmlns="http://www.w3.org/2000/svg" viewBox="0 0 18 10">
  <defs>
    <style>
      .cls-1 {
        fill: #0a0a0a;
      }
    </style>
  </defs>
  <path id="Path_3564" data-name="Path 3564" class="cls-1" d="M34.05,5.74,28.3,0H40.64L34.89,5.74A.58.58,0,0,1,34.05,5.74Z" transform="translate(-25.47)"/>
  <path id="Path_3565" data-name="Path 3565" class="cls-1" d="M18,1V9a1,1,0,0,1-1,1H1A1,1,0,0,1,0,9V1A1,1,0,0,1,1,0h.7L8.01,6.31A1.409,1.409,0,0,0,9,6.72a1.427,1.427,0,0,0,.99-.41L16.3,0H17A1,1,0,0,1,18,1Z"/>
</svg>
